<?xml version="1.0" encoding="UTF-8" ?>
<!DOCTYPE svg PUBLIC "-//W3C//DTD SVG 1.1//EN" "http://www.w3.org/Graphics/SVG/1.1/DTD/svg11.dtd">
<svg width="29pt" height="24pt" viewBox="0 0 29 24" version="1.1" xmlns="http://www.w3.org/2000/svg">
<path fill="#ffffff" d=" M 0.00 0.00 L 11.66 0.00 C 10.01 2.59 8.75 5.41 7.77 8.32 C 12.17 8.18 12.55 3.05 14.25 0.00 L 14.83 0.00 C 16.37 3.07 16.87 8.23 21.25 8.25 C 20.21 5.42 18.91 2.70 17.59 0.00 L 29.00 0.00 L 29.00 6.54 C 26.77 5.92 24.45 5.93 22.16 5.94 C 22.02 6.66 21.73 8.11 21.59 8.84 C 19.00 9.45 16.98 8.40 15.79 6.07 C 15.14 6.05 13.85 6.01 13.20 5.99 C 12.02 8.20 9.97 9.32 7.47 8.94 C 7.30 8.21 6.96 6.73 6.79 5.99 C 4.52 6.00 2.26 6.02 0.00 6.03 L 0.00 0.00 Z" />
<path fill="#98b827" d=" M 11.66 0.00 L 14.25 0.00 C 12.55 3.05 12.17 8.18 7.77 8.32 C 8.75 5.41 10.01 2.59 11.66 0.00 Z" />
<path fill="#98b827" d=" M 14.83 0.00 L 17.59 0.00 C 18.91 2.70 20.21 5.42 21.25 8.25 C 16.87 8.23 16.37 3.07 14.83 0.00 Z" />
<path fill="#98b827" d=" M 0.00 6.03 C 2.26 6.02 4.52 6.00 6.79 5.99 C 6.96 6.73 7.30 8.21 7.47 8.94 C 9.97 9.32 12.02 8.20 13.20 5.99 C 13.85 6.01 15.14 6.05 15.79 6.07 C 16.98 8.40 19.00 9.45 21.59 8.84 C 21.73 8.11 22.02 6.66 22.16 5.94 C 24.45 5.93 26.77 5.92 29.00 6.54 L 29.00 9.96 C 19.33 9.90 9.65 10.27 0.00 9.78 L 0.00 6.03 Z" />
<path fill="#ffffff" d=" M 0.00 9.78 C 9.65 10.27 19.33 9.90 29.00 9.96 L 29.00 24.00 L 25.62 24.00 C 26.45 19.71 26.66 15.34 27.01 11.00 C 18.66 11.00 10.32 11.00 1.97 11.01 C 2.32 15.34 2.70 19.67 3.08 24.00 L 0.00 24.00 L 0.00 9.78 Z" />
<path fill="#98b827" d=" M 1.97 11.01 C 10.32 11.00 18.66 11.00 27.01 11.00 C 26.66 15.34 26.45 19.71 25.62 24.00 L 3.08 24.00 C 2.70 19.67 2.32 15.34 1.97 11.01 Z" />
</svg>
